<?xml version="1.0" encoding="iso-8859-1"?>
<!-- Generator: Adobe Illustrator 19.0.0, SVG Export Plug-In . SVG Version: 6.00 Build 0)  -->
<svg version="1.1" id="Layer_1" xmlns="http://www.w3.org/2000/svg" xmlns:xlink="http://www.w3.org/1999/xlink" x="0px" y="0px"
	 viewBox="0 0 512 512" style="enable-background:new 0 0 512 512;" xml:space="preserve">
<g>
	<g>
		<path d="M478.609,392.437V139.13c0-46.03-37.448-83.478-83.478-83.478h-50.087V38.957c0-9.22-7.475-16.696-16.696-16.696
			s-16.696,7.475-16.696,16.696v16.696h-33.391V38.957c0-9.22-7.475-16.696-16.696-16.696c-9.22,0-16.696,7.475-16.696,16.696
			v16.696h-128c-46.03,0-83.478,37.448-83.478,83.478v100.174c0,9.22,7.475,16.696,16.696,16.696h16.696v50.087
			c0,9.22,7.475,16.696,16.696,16.696h16.696v16.696c0,9.22,7.475,16.696,16.696,16.696s16.696-7.475,16.696-16.696v-16.696h16.696
			c9.22,0,16.696-7.475,16.696-16.696V256h16.696c4.428,0,8.674-1.76,11.805-4.891c3.132-3.131,4.891-7.377,4.891-11.805v-50.087
			h111.304v200.348H50.087C22.469,389.565,0,412.034,0,439.652v33.391c0,9.22,7.475,16.696,16.696,16.696h478.609
			c9.22,0,16.696-7.475,16.696-16.696v-33.391C512,417.887,498.041,399.329,478.609,392.437z M133.565,289.391h-33.391V256h33.391
			V289.391z M395.13,189.217c9.22,0,16.696,7.475,16.696,16.696c0,9.22-7.475,16.696-16.696,16.696s-16.696-7.475-16.696-16.696
			C378.435,196.693,385.91,189.217,395.13,189.217z M395.13,256c9.22,0,16.696,7.475,16.696,16.696
			c0,9.22-7.475,16.696-16.696,16.696s-16.696-7.475-16.696-16.696C378.435,263.475,385.91,256,395.13,256z M478.609,456.348H33.391
			v-16.696c0-9.206,7.49-16.696,16.696-16.696c16.559,0,395.834,0,411.826,0c9.206,0,16.696,7.49,16.696,16.696V456.348z"/>
	</g>
</g>
<g>
</g>
<g>
</g>
<g>
</g>
<g>
</g>
<g>
</g>
<g>
</g>
<g>
</g>
<g>
</g>
<g>
</g>
<g>
</g>
<g>
</g>
<g>
</g>
<g>
</g>
<g>
</g>
<g>
</g>
</svg>
